<svg xmlns="http://www.w3.org/2000/svg" xmlns:xlink="http://www.w3.org/1999/xlink" width="500" zoomAndPan="magnify" viewBox="0 0 375 374.999991" height="500" preserveAspectRatio="xMidYMid meet" version="1.0"><defs><clipPath id="bd515fc0c5"><path d="M 9 1 L 367.386719 1 L 367.386719 374 L 9 374 Z M 9 1 " clip-rule="nonzero"/></clipPath><clipPath id="33a3daf613"><path d="M 8 0 L 367.386719 0 L 367.386719 375 L 8 375 Z M 8 0 " clip-rule="nonzero"/></clipPath><clipPath id="7c6e977278"><path d="M 75 66 L 367.386719 66 L 367.386719 374 L 75 374 Z M 75 66 " clip-rule="nonzero"/></clipPath><clipPath id="a3002a0c48"><path d="M 74 65 L 367.386719 65 L 367.386719 375 L 74 375 Z M 74 65 " clip-rule="nonzero"/></clipPath><clipPath id="8e0b1f8551"><path d="M 137 128 L 367.386719 128 L 367.386719 374 L 137 374 Z M 137 128 " clip-rule="nonzero"/></clipPath><clipPath id="91367a6f34"><path d="M 135 127 L 367.386719 127 L 367.386719 375 L 135 375 Z M 135 127 " clip-rule="nonzero"/></clipPath></defs><g clip-path="url(#bd515fc0c5)"><path fill="#eb77f1" d="M 9.507812 373.851562 C 13.410156 167.304688 181.863281 1.148438 389.328125 1.148438 C 596.796875 1.148438 765.246094 167.304688 769.148438 373.851562 L 571.78125 373.851562 C 567.878906 276.316406 487.785156 198.285156 389.328125 198.285156 C 290.875 198.285156 210.550781 276.316406 206.878906 373.851562 Z M 9.507812 373.851562 " fill-opacity="1" fill-rule="nonzero"/></g><g clip-path="url(#33a3daf613)"><path fill="#ffffff" d="M 770.296875 375 L 570.632812 375 L 570.632812 373.851562 C 566.730469 276.085938 487.09375 199.433594 389.328125 199.433594 C 291.332031 199.433594 211.699219 276.085938 208.027344 373.851562 L 208.027344 375 L 8.363281 375 L 8.363281 373.851562 C 10.199219 273.5625 50.589844 179.695312 122.191406 109.242188 C 194.027344 38.785156 288.808594 0 389.328125 0 C 489.847656 0 584.632812 38.785156 656.234375 109.242188 C 727.839844 179.695312 768.230469 273.5625 770.066406 373.851562 Z M 572.925781 372.703125 L 768 372.703125 C 763.410156 168.222656 593.8125 2.296875 389.328125 2.296875 C 184.847656 2.296875 15.246094 168.222656 10.65625 372.703125 L 205.730469 372.703125 C 207.796875 325.65625 227.761719 281.59375 261.726562 248.777344 C 296.152344 215.5 341.363281 197.367188 389.328125 197.367188 C 437.066406 197.367188 482.503906 215.726562 516.929688 248.777344 C 550.894531 281.59375 570.863281 325.429688 572.925781 372.703125 Z M 572.925781 372.703125 " fill-opacity="1" fill-rule="nonzero"/></g><g clip-path="url(#7c6e977278)"><path fill="#8ff67a" d="M 75.144531 373.851562 C 79.046875 203.566406 218.125 66.785156 389.328125 66.785156 C 560.535156 66.785156 699.609375 203.566406 703.511719 373.621094 L 572.007812 373.621094 C 568.109375 276.085938 488.011719 198.058594 389.558594 198.058594 C 291.105469 198.058594 210.78125 276.085938 207.109375 373.621094 L 75.144531 373.621094 Z M 75.144531 373.851562 " fill-opacity="1" fill-rule="nonzero"/></g><g clip-path="url(#a3002a0c48)"><path fill="#ffffff" d="M 704.660156 375 L 570.632812 375 L 570.632812 373.851562 C 566.730469 276.085938 487.09375 199.433594 389.328125 199.433594 C 291.332031 199.433594 211.699219 276.085938 208.027344 373.851562 L 208.027344 375 L 74 375 L 74 373.851562 C 75.835938 291.234375 109.570312 213.664062 168.78125 155.828125 C 227.992188 97.765625 306.480469 65.867188 389.328125 65.867188 C 472.179688 65.867188 550.667969 97.765625 609.875 155.828125 C 669.085938 213.664062 702.59375 291.234375 704.660156 373.851562 Z M 572.925781 372.703125 L 702.136719 372.703125 C 697.773438 204.710938 557.550781 68.160156 389.328125 68.160156 C 221.105469 68.160156 80.882812 204.484375 76.292969 372.703125 L 205.730469 372.703125 C 207.796875 325.65625 227.761719 281.59375 261.726562 248.777344 C 296.152344 215.5 341.363281 197.367188 389.328125 197.367188 C 437.066406 197.367188 482.503906 215.726562 516.929688 248.777344 C 550.894531 281.59375 570.863281 325.429688 572.925781 372.703125 Z M 572.925781 372.703125 " fill-opacity="1" fill-rule="nonzero"/></g><g clip-path="url(#8e0b1f8551)"><path fill="#ff6899" d="M 137.109375 373.851562 C 141.011719 237.761719 252.320312 128.75 389.328125 128.75 C 526.339844 128.75 637.644531 237.761719 641.546875 373.851562 L 572.007812 373.851562 C 568.109375 276.316406 488.011719 198.285156 389.558594 198.285156 C 291.105469 198.285156 210.78125 276.316406 207.109375 373.851562 Z M 137.109375 373.851562 " fill-opacity="1" fill-rule="nonzero"/></g><g clip-path="url(#91367a6f34)"><path fill="#ffffff" d="M 642.695312 375 L 570.632812 375 L 570.632812 373.851562 C 566.730469 276.085938 487.09375 199.433594 389.328125 199.433594 C 291.332031 199.433594 211.699219 276.085938 208.027344 373.851562 L 208.027344 375 L 135.964844 375 L 135.964844 373.851562 C 137.800781 307.527344 165.109375 245.5625 212.617188 199.433594 C 260.121094 153.074219 323.003906 127.601562 389.328125 127.601562 C 455.652344 127.601562 518.535156 153.074219 566.042969 199.433594 C 613.546875 245.792969 640.628906 307.527344 642.464844 373.851562 Z M 572.925781 372.703125 L 640.398438 372.703125 C 635.808594 236.382812 525.878906 129.894531 389.328125 129.894531 C 252.777344 129.894531 142.847656 236.382812 138.257812 372.703125 L 205.730469 372.703125 C 207.796875 325.65625 227.761719 281.59375 261.726562 248.777344 C 296.152344 215.5 341.363281 197.367188 389.328125 197.367188 C 437.066406 197.367188 482.503906 215.726562 516.929688 248.777344 C 550.894531 281.59375 570.863281 325.429688 572.925781 372.703125 Z M 572.925781 372.703125 " fill-opacity="1" fill-rule="nonzero"/></g></svg>