<svg width="640" height="140" viewBox="0 0 640 140" fill="none" xmlns="http://www.w3.org/2000/svg">
<path d="M66.5766 0C38.7906 0 30.6642 0.0286644 29.0846 0.159702C23.3824 0.633688 19.8342 1.5315 15.9686 3.45611C12.9895 4.9354 10.6401 6.65014 8.32132 9.05386C4.09844 13.4375 1.53912 18.8305 0.612645 25.2411C0.162204 28.3532 0.0311669 28.9879 0.00454991 44.8844C-0.00568738 50.1832 0.00454991 57.1568 0.00454991 66.5107C0.00454991 94.2742 0.0352618 102.392 0.168347 103.969C0.629025 109.518 1.49919 113.008 3.34191 116.827C6.86353 124.136 13.5894 129.624 21.5131 131.671C24.2567 132.377 27.2869 132.766 31.1771 132.951C32.8253 133.022 49.6247 133.074 66.4343 133.074C83.2439 133.074 100.054 133.053 101.661 132.971C106.165 132.759 108.781 132.408 111.673 131.661C115.602 130.653 119.263 128.8 122.402 126.231C125.54 123.662 128.08 120.438 129.844 116.786C131.651 113.06 132.567 109.436 132.982 104.177C133.072 103.03 133.11 84.7494 133.11 66.4932C133.11 48.234 133.069 29.9871 132.979 28.8405C132.559 23.4966 131.643 19.9033 129.778 16.1053C128.247 12.9962 126.548 10.6744 124.081 8.3004C119.678 4.09492 114.294 1.53559 107.876 0.610143C104.767 0.160725 104.147 0.0276407 88.2387 0H66.5766Z" fill="url(#paint0_radial_502_2)"/>
<path d="M66.5766 0C38.7906 0 30.6642 0.0286644 29.0846 0.159702C23.3824 0.633688 19.8342 1.5315 15.9686 3.45611C12.9895 4.9354 10.6401 6.65014 8.32132 9.05386C4.09844 13.4375 1.53912 18.8305 0.612645 25.2411C0.162204 28.3532 0.0311669 28.9879 0.00454991 44.8844C-0.00568738 50.1832 0.00454991 57.1568 0.00454991 66.5107C0.00454991 94.2742 0.0352618 102.392 0.168347 103.969C0.629025 109.518 1.49919 113.008 3.34191 116.827C6.86353 124.136 13.5894 129.624 21.5131 131.671C24.2567 132.377 27.2869 132.766 31.1771 132.951C32.8253 133.022 49.6247 133.074 66.4343 133.074C83.2439 133.074 100.054 133.053 101.661 132.971C106.165 132.759 108.781 132.408 111.673 131.661C115.602 130.653 119.263 128.8 122.402 126.231C125.54 123.662 128.08 120.438 129.844 116.786C131.651 113.06 132.567 109.436 132.982 104.177C133.072 103.03 133.11 84.7494 133.11 66.4932C133.11 48.234 133.069 29.9871 132.979 28.8405C132.559 23.4966 131.643 19.9033 129.778 16.1053C128.247 12.9962 126.548 10.6744 124.081 8.3004C119.678 4.09492 114.294 1.53559 107.876 0.610143C104.767 0.160725 104.147 0.0276407 88.2387 0H66.5766Z" fill="url(#paint1_radial_502_2)"/>
<path d="M66.5459 17.4034C53.2005 17.4034 51.5257 17.4618 46.2842 17.7003C41.053 17.9398 37.4822 18.768 34.3578 19.9832C31.1259 21.2383 28.3843 22.9172 25.653 25.6495C22.9197 28.3808 21.2407 31.1224 19.9816 34.3533C18.7633 37.4787 17.9341 41.0505 17.6986 46.2797C17.4652 51.5212 17.4038 53.1971 17.4038 66.5424C17.4038 79.8877 17.4632 81.5574 17.7007 86.7989C17.9413 92.0302 18.7695 95.6009 19.9836 98.7253C21.2397 101.957 22.9186 104.699 25.651 107.43C28.3813 110.163 31.1228 111.846 34.3527 113.102C37.4791 114.317 41.0509 115.145 46.2812 115.384C51.5226 115.623 53.1964 115.681 66.5408 115.681C79.8871 115.681 81.5568 115.623 86.7983 115.384C92.0296 115.145 95.6044 114.317 98.7309 113.102C101.962 111.846 104.699 110.163 107.43 107.43C110.163 104.699 111.842 101.957 113.101 98.7264C114.309 95.6009 115.138 92.0291 115.384 86.7999C115.619 81.5584 115.681 79.8877 115.681 66.5424C115.681 53.1971 115.619 51.5222 115.384 46.2807C115.138 41.0495 114.309 37.4787 113.101 34.3543C111.842 31.1224 110.163 28.3808 107.43 25.6495C104.696 22.9162 101.963 21.2373 98.7278 19.9832C95.5952 18.768 92.0224 17.9398 86.7911 17.7003C81.5496 17.4618 79.881 17.4034 66.5315 17.4034H66.5459ZM62.1377 26.2587C63.446 26.2566 64.9059 26.2587 66.5459 26.2587C79.666 26.2587 81.221 26.3057 86.4021 26.5412C91.1932 26.7603 93.7934 27.5608 95.5256 28.2334C97.8187 29.1241 99.4536 30.1887 101.172 31.9086C102.892 33.6285 103.957 35.2664 104.85 37.5596C105.522 39.2897 106.324 41.89 106.542 46.681C106.777 51.8611 106.829 53.4172 106.829 66.5311C106.829 79.6451 106.777 81.2012 106.542 86.3812C106.323 91.1723 105.522 93.7726 104.85 95.5027C103.959 97.7958 102.892 99.4287 101.172 101.147C99.4526 102.867 97.8198 103.932 95.5256 104.823C93.7955 105.498 91.1932 106.297 86.4021 106.516C81.222 106.751 79.666 106.803 66.5459 106.803C53.4247 106.803 51.8697 106.751 46.6896 106.516C41.8986 106.295 39.2983 105.494 37.5651 104.822C35.272 103.931 33.634 102.866 31.9141 101.146C30.1943 99.4266 29.1296 97.7927 28.2369 95.4986C27.5643 93.7685 26.7627 91.1682 26.5447 86.3771C26.3092 81.1971 26.2621 79.641 26.2621 66.5188C26.2621 53.3967 26.3092 51.8488 26.5447 46.6687C26.7638 41.8777 27.5643 39.2774 28.2369 37.5453C29.1276 35.2521 30.1943 33.6141 31.9141 31.8943C33.634 30.1744 35.272 29.1097 37.5651 28.217C39.2973 27.5414 41.8986 26.7429 46.6896 26.5228C51.2227 26.318 52.9794 26.2566 62.1377 26.2464V26.2587ZM92.7758 34.4178C91.6095 34.4178 90.4694 34.7637 89.4996 35.4117C88.5299 36.0597 87.7741 36.9808 87.3278 38.0584C86.8816 39.136 86.7649 40.3217 86.9926 41.4656C87.2203 42.6095 87.7821 43.6602 88.607 44.4848C89.4319 45.3093 90.4827 45.8708 91.6267 46.0981C92.7707 46.3254 93.9564 46.2083 95.0338 45.7617C96.1113 45.3151 97.0321 44.559 97.6798 43.589C98.3274 42.619 98.6729 41.4787 98.6725 40.3124C98.6725 37.0569 96.0313 34.4157 92.7758 34.4157V34.4178ZM66.5459 41.3075C52.6098 41.3075 41.311 52.6064 41.311 66.5424C41.311 80.4784 52.6098 91.7722 66.5459 91.7722C80.4819 91.7722 91.7777 80.4784 91.7777 66.5424C91.7777 52.6064 80.4809 41.3075 66.5448 41.3075H66.5459ZM66.5459 50.1627C75.5915 50.1627 82.9255 57.4957 82.9255 66.5424C82.9255 75.5881 75.5915 82.9221 66.5459 82.9221C57.4992 82.9221 50.1662 75.5881 50.1662 66.5424C50.1662 57.4957 57.4992 50.1627 66.5459 50.1627Z" fill="white"/>
<path d="M195.15 7.46108C185.547 11.4782 174.988 22.815 171.655 37.0743C167.426 55.1257 185.006 62.7488 186.443 60.2617C188.133 57.3118 183.282 56.3216 182.292 46.9618C181.017 34.8581 186.632 21.3352 193.717 15.4015C195.038 14.3168 194.974 15.8475 194.974 18.6692C194.974 23.758 194.69 69.287 194.69 78.7923C194.69 91.6595 194.163 95.7111 193.189 99.7117C192.233 103.78 190.685 106.524 191.851 107.592C193.172 108.771 198.787 105.963 202.042 101.422C205.936 95.9812 207.308 89.4428 207.561 82.3468C207.848 73.8013 207.832 60.2143 207.848 52.4797C207.848 45.3667 207.96 24.5722 207.737 12.0529C207.673 8.99178 199.155 5.78491 195.15 7.46108ZM637.881 75.0114C636.509 75.0114 635.857 76.4473 635.329 78.8566C633.511 87.2603 631.598 89.1559 629.123 89.1559C626.365 89.1559 623.891 84.9964 623.239 76.6703C622.745 70.1319 622.823 58.0756 623.462 46.0834C623.59 43.6269 622.918 41.1905 616.313 38.7814C613.46 37.7608 609.326 36.2301 607.271 41.2042C601.447 55.2238 599.183 66.3847 598.639 70.899C598.626 71.1355 598.338 71.1694 598.287 70.6286C597.956 67.0064 597.189 60.4205 597.094 46.5768C597.06 43.9006 596.502 41.5858 593.504 39.7039C591.574 38.494 585.703 36.3247 583.58 38.8929C581.762 40.9979 579.642 46.6442 577.425 53.3416C575.637 58.7953 574.393 62.4954 574.393 62.4954C574.393 62.4954 574.406 47.7897 574.441 42.2077C574.441 40.1025 573.004 39.4031 572.575 39.2746C570.611 38.7003 566.734 37.7608 565.108 37.7608C563.084 37.7608 562.604 38.8929 562.604 40.5351C562.604 40.7412 562.269 59.8767 562.269 73.2577V75.1396C561.167 81.2964 557.534 89.6526 553.593 89.6526C549.651 89.6526 547.785 86.1586 547.785 70.213C547.785 60.914 548.073 56.866 548.201 50.1349C548.279 46.259 548.438 43.2787 548.424 42.5929C548.391 40.5351 544.801 39.4809 543.141 39.0989C541.468 38.7003 540.015 38.5718 538.869 38.6192C537.274 38.717 536.141 39.768 536.141 41.2379V43.468C534.083 40.2173 530.747 37.9502 528.516 37.2978C522.55 35.5274 516.31 37.1052 511.605 43.6741C507.874 48.9084 505.622 54.8216 504.747 63.3233C504.091 69.5439 504.301 75.8426 505.464 81.1679C504.061 87.1792 501.475 89.6526 498.653 89.6526C494.536 89.6526 491.572 82.952 491.906 71.3585C492.146 63.7389 493.661 58.3967 495.334 50.6451C496.054 47.3437 495.462 45.6239 494.012 43.9478C492.687 42.4475 489.848 41.6669 485.782 42.6064C482.892 43.2924 478.731 44.0256 474.948 44.5864C474.948 44.5864 475.171 43.6741 475.364 42.0658C476.338 33.6282 467.164 34.3142 464.244 37.0107C462.49 38.6192 461.293 40.5181 460.847 43.931C460.13 49.3544 464.548 51.9054 464.548 51.9054C463.098 58.5386 459.556 67.2124 455.871 73.4807C453.907 76.8462 452.407 79.3196 450.463 81.9654C450.446 80.9923 450.446 80.0021 450.446 79.0322C450.412 65.077 450.588 54.0917 450.669 50.1349C450.75 46.259 450.909 43.3565 450.909 42.6705C450.875 41.1702 449.999 40.5823 448.147 39.8795C446.521 39.2442 444.591 38.7814 442.597 38.6192C440.092 38.4299 438.561 39.768 438.609 41.3461V43.468C436.537 40.2173 433.2 37.9502 431 37.2978C425.017 35.5274 418.781 37.1052 414.076 43.6741C410.358 48.9084 407.901 56.2273 407.198 63.2422C406.562 69.8143 406.674 75.3626 407.566 80.0528C406.609 84.7394 403.882 89.6526 400.789 89.6526C396.848 89.6526 394.597 86.1586 394.597 70.213C394.597 60.914 394.884 56.866 395.029 50.1349C395.107 46.259 395.252 43.2787 395.235 42.5929C395.218 40.5351 391.632 39.4809 389.956 39.0989C388.218 38.6866 386.701 38.5584 385.552 38.6192C384.02 38.7474 382.952 40.1025 382.952 41.1398V43.468C380.88 40.2173 377.544 37.9502 375.327 37.2978C369.361 35.5274 363.172 37.1392 358.433 43.6741C355.341 47.9352 352.836 52.6692 351.545 63.1644C351.193 66.1954 351.018 69.0305 351.034 71.6796C349.804 79.2046 344.366 87.8819 339.931 87.8819C337.315 87.8819 334.827 82.8405 334.827 72.0782C334.827 57.758 335.719 37.3452 335.878 35.3685C335.878 35.3685 341.492 35.2704 342.594 35.257C345.386 35.24 347.938 35.3044 351.656 35.1118C353.539 35.0172 355.341 28.3029 353.394 27.4583C352.532 27.0898 346.343 26.7553 343.885 26.7081C341.814 26.6607 336.084 26.2317 336.084 26.2317C336.084 26.2317 336.598 12.6918 336.71 11.2726C336.804 10.0595 335.273 9.45479 334.381 9.08631C332.224 8.16383 330.294 7.73148 328.03 7.26847C324.856 6.6164 323.436 7.25504 323.166 9.91425C322.75 13.9521 322.527 25.7856 322.527 25.7856C320.198 25.7856 312.302 25.3193 309.987 25.3193C307.837 25.3193 305.505 34.571 308.49 34.6825C311.92 34.811 317.869 34.9394 321.824 35.0474C321.824 35.0474 321.648 55.798 321.648 62.1912V64.168C319.465 75.5045 311.822 81.6309 311.822 81.6309C313.465 74.1193 310.115 68.4897 304.055 63.7389C301.821 61.9682 297.42 58.6331 292.488 55.0142C292.488 55.0142 295.344 52.1928 297.879 46.5464C299.668 42.5423 299.749 37.9365 295.344 36.9296C288.07 35.257 282.088 40.5992 280.286 46.3064C278.914 50.7092 279.634 53.9936 282.358 57.3896L282.98 58.1567C281.354 61.3126 279.09 65.5702 277.19 68.8716C271.88 78.0424 267.874 85.2835 264.86 85.2835C262.436 85.2835 262.466 77.9309 262.466 71.0409C262.466 65.1074 262.913 56.163 263.264 46.9146C263.376 43.8667 261.845 42.113 259.279 40.5351C257.714 39.5787 254.395 37.6967 252.465 37.6967C249.595 37.6967 241.267 38.0784 233.405 60.8025C232.414 63.6746 230.467 68.8886 230.467 68.8886L230.643 41.5554C230.643 40.9168 230.309 40.3121 229.528 39.8795C228.203 39.1631 224.647 37.6967 221.52 37.6967C220.003 37.6967 219.252 38.3995 219.252 39.785L218.999 82.523C218.999 85.777 219.076 89.5715 219.398 91.2307C219.715 92.8896 220.243 94.2447 220.881 95.0557C221.52 95.8395 222.267 96.4445 223.481 96.7149C224.613 96.9546 230.849 97.7352 231.17 95.3598C231.569 92.5044 231.583 89.4296 234.855 77.9004C239.958 59.9745 246.597 51.2363 249.723 48.1243C250.281 47.5837 250.903 47.55 250.869 48.4453C250.727 52.3818 250.264 62.1912 249.947 70.5308C249.102 92.8729 253.151 97.002 258.975 97.002C263.409 97.002 269.663 92.5855 276.379 81.4246C280.574 74.4538 284.626 67.645 287.56 62.7184C289.571 64.597 291.866 66.6245 294.148 68.7938C299.461 73.8152 301.199 78.5999 300.036 83.1312C299.157 86.6047 295.824 90.1765 289.906 86.7027C288.182 85.6959 287.449 84.9153 285.711 83.7663C284.785 83.1446 283.348 82.969 282.503 83.6076C280.269 85.2835 279.008 87.4022 278.275 90.0345C277.589 92.6025 280.158 93.9406 282.821 95.1198C285.103 96.1573 290.017 97.0661 293.158 97.1777C305.393 97.5933 315.189 91.2779 322 75.0114C323.23 89.0614 328.411 97.019 337.426 97.019C343.47 97.019 349.517 89.22 352.167 81.5498C352.914 84.6753 354.046 87.3852 355.5 89.7C362.456 100.702 375.949 98.3434 382.712 88.997C384.818 86.0945 385.139 85.0572 385.139 85.0572C386.126 93.8798 393.241 96.985 397.311 96.985C401.887 96.985 406.579 94.8193 409.878 87.3852C410.277 88.1997 410.693 88.9666 411.173 89.7C418.112 100.702 431.605 98.3434 438.386 88.997C438.69 88.5343 438.977 88.1523 439.214 87.7841L439.423 93.5891C439.423 93.5891 435.546 97.1305 433.17 99.3133C422.722 108.9 414.776 116.171 414.188 124.622C413.454 135.418 422.195 139.422 428.83 139.946C435.851 140.507 441.881 136.631 445.578 131.177C448.833 126.393 450.973 116.107 450.814 105.933C450.75 101.851 450.652 96.6845 450.557 91.1192C454.242 86.8784 458.389 81.4854 462.188 75.1736C466.349 68.314 470.784 59.0792 473.048 51.8887C473.048 51.8887 476.925 51.9224 481.042 51.6656C482.367 51.5846 482.749 51.8582 482.492 52.8144C482.205 53.9769 477.294 72.9399 481.776 85.5707C484.855 94.211 491.76 97.002 495.877 97.002C500.677 97.002 505.274 93.3661 507.728 87.9767C508.032 88.568 508.336 89.1559 508.688 89.7C515.627 100.702 529.073 98.3267 535.901 88.997C537.449 86.8784 538.31 85.0572 538.31 85.0572C539.778 94.1973 546.893 97.019 550.959 97.019C555.218 97.019 559.237 95.282 562.509 87.5611C562.637 90.9603 562.843 93.7346 563.195 94.6097C563.401 95.1538 564.614 95.8228 565.476 96.1573C569.367 97.5933 573.325 96.9075 574.775 96.6034C575.796 96.3971 576.593 95.5998 576.691 93.4946C576.975 87.9767 576.799 78.7114 578.476 71.8081C581.298 60.2619 583.915 55.7813 585.158 53.5646C585.848 52.3177 586.642 52.1117 586.659 53.4194C586.706 56.0819 586.852 63.8976 587.95 74.4234C588.734 82.141 589.802 86.7162 590.631 88.1693C592.96 92.2984 595.863 92.491 598.209 92.491C599.709 92.491 602.836 92.0754 602.562 89.443C602.42 88.1693 602.66 80.2421 605.418 68.8582C607.237 61.4107 610.252 54.6966 611.337 52.2399C611.753 51.3311 611.928 52.0339 611.928 52.1758C611.688 57.295 611.178 74.0549 613.25 83.2087C616.093 95.6335 624.273 97.019 627.129 97.019C633.206 97.019 638.202 92.3929 639.875 80.2117C640.291 77.2752 639.683 75.0114 637.881 75.0114ZM382.824 67.4858C382.489 73.9265 381.228 79.3194 379.221 83.2255C375.55 90.3214 368.327 92.5549 365.149 82.3334C362.837 74.9503 363.618 64.8705 364.592 59.4304C365.994 51.3613 369.554 45.6541 375.104 46.1777C380.782 46.7388 383.557 54.0577 382.824 67.4858ZM438.481 67.5806C438.163 73.656 436.584 79.7788 434.861 83.2255C431.305 90.3688 423.869 92.6023 420.789 82.3334C418.687 75.2983 419.18 66.2256 420.232 60.5151C421.59 53.0846 424.859 46.1777 430.747 46.1777C436.473 46.1777 439.295 52.4627 438.481 67.5806ZM439.934 109.105C439.853 120.223 438.116 129.951 434.38 132.789C429.054 136.807 421.891 133.776 423.375 125.676C424.683 118.499 430.889 111.18 439.951 102.233C439.951 102.233 439.981 104.273 439.933 109.105H439.934ZM536.029 67.6447C535.708 74.3284 534.224 79.5424 532.392 83.2255C528.833 90.3688 521.465 92.5853 518.321 82.3334C516.614 76.7344 516.533 67.388 517.763 59.5926C519.007 51.6484 522.502 45.6541 528.275 46.1777C533.984 46.7218 536.651 54.0577 536.029 67.6447Z" fill="#231E1F"/>
<defs>
<radialGradient id="paint0_radial_502_2" cx="0" cy="0" r="1" gradientUnits="userSpaceOnUse" gradientTransform="translate(35.3575 143.323) rotate(-90) scale(131.886 122.697)">
<stop stop-color="#FFDD55"/>
<stop offset="0.1" stop-color="#FFDD55"/>
<stop offset="0.5" stop-color="#FF543E"/>
<stop offset="1" stop-color="#C837AB"/>
</radialGradient>
<radialGradient id="paint1_radial_502_2" cx="0" cy="0" r="1" gradientUnits="userSpaceOnUse" gradientTransform="translate(-22.2966 9.58639) rotate(78.6776) scale(58.9541 243.072)">
<stop stop-color="#3771C8"/>
<stop offset="0.128" stop-color="#3771C8"/>
<stop offset="1" stop-color="#6600FF" stop-opacity="0"/>
</radialGradient>
</defs>
</svg>
