<svg xmlns="http://www.w3.org/2000/svg" xmlns:xlink="http://www.w3.org/1999/xlink" width="1080" zoomAndPan="magnify" viewBox="0 0 810 809.999993" height="1080" preserveAspectRatio="xMidYMid meet" version="1.0"><defs><g/></defs><path stroke-linecap="butt" transform="matrix(0.75, 0, 0, 0.75, -173.354885, 163.104797)" fill="none" stroke-linejoin="miter" d="M 320.697154 93.401943 C 312.92632 93.401943 297.384653 93.401943 292.957569 98.188401 C 289.254444 101.891526 289.254444 107.495693 288.889861 112.282152 C 284.462777 169.657155 284.103402 232.547783 284.103402 321.000912 C 284.103402 345.037372 293.681528 352.443622 325.936738 352.443622 L 352.952364 352.443622 C 383.31174 352.443622 405.447158 348.016539 410.686742 341.782163 C 414.030492 337.719663 415.113825 333.19883 415.113825 324.709246 C 415.113825 300.672786 412.134659 277.360285 408.431533 274.740493 C 405.447158 272.573827 402.915908 271.761327 398.853408 271.761327 C 387.014866 271.761327 375.900282 276.636327 364.066948 276.636327 C 360.723198 276.636327 358.827364 276.276952 356.655489 274.381118 C 351.780489 270.31341 351.780489 223.693616 351.780489 216.641532 C 351.780489 183.39153 354.035697 149.693612 354.035697 115.990485 C 354.035697 98.641526 346.264864 93.401943 320.697154 93.401943 Z M 566.066958 353.980081 C 583.145084 353.980081 590.191959 349.91758 590.191959 339.526955 C 590.191959 296.245703 557.936749 118.969652 546.822165 95.657151 C 543.93154 88.974859 542.035707 87.891526 534.988831 87.891526 C 524.327372 87.891526 486.921121 88.974859 478.426329 91.230067 C 465.775286 94.125901 456.561744 100.089443 453.577369 111.198818 C 431.353409 198.120698 413.639867 273.65716 403.9732 342.146747 C 403.9732 342.506122 403.9732 342.870705 403.9732 343.23008 L 403.613825 345.037372 C 403.613825 345.490497 403.613825 345.849872 403.613825 346.209247 C 403.613825 356.151956 425.478409 356.151956 433.973201 356.151956 C 439.57216 356.151956 445.44716 355.787372 450.598202 355.787372 C 462.072161 355.787372 465.415911 353.980081 467.311745 344.672789 C 471.379453 325.427996 472.462787 304.375912 474.35862 285.131119 C 474.35862 284.771744 474.35862 284.771744 474.35862 284.407161 L 474.723203 282.870702 C 474.723203 282.511327 474.723203 282.511327 474.723203 282.151952 L 517.280497 282.151952 C 520.171122 301.032161 523.150289 320.282162 526.134664 339.162372 C 527.217998 343.954039 527.577373 347.657164 533.18154 351.360289 C 535.348206 352.808206 551.702374 353.980081 566.066958 353.980081 Z M 479.150287 242.21445 C 483.57737 211.131115 488.728412 184.115489 495.051329 158.183196 C 501.374246 187.006114 506.525288 215.198824 510.952372 242.938408 L 501.73883 242.573825 C 493.967996 242.21445 486.556537 242.21445 479.150287 242.21445 Z M 693.770089 97.464443 C 662.686754 97.464443 602.332585 104.875901 599.436751 108.94361 C 596.457584 112.646735 596.457584 132.250903 596.457584 137.85507 C 596.457584 155.204029 596.457584 172.64153 596.457584 189.990489 L 597.540918 294.709244 C 597.540918 312.146745 597.540918 329.495704 597.540918 346.933205 C 597.540918 351.000914 597.540918 353.620706 600.884668 356.511331 C 602.780501 358.407164 630.160711 360.214456 654.191962 360.214456 C 666.030505 360.214456 670.457588 356.151956 670.457588 345.849872 C 670.457588 318.021746 666.030505 291.006119 666.030505 261.818618 C 666.030505 250.344659 686.358631 254.047784 694.129464 254.047784 C 697.473215 254.047784 701.900298 250.709242 704.879465 248.084242 C 705.968007 247.000909 708.587798 225.948824 708.587798 217.006115 C 708.587798 200.74049 681.207589 204.08424 670.098213 204.08424 C 661.962796 204.08424 658.259671 199.657156 658.259671 189.990489 C 658.259671 179.23528 655.275296 158.907154 673.07738 158.907154 C 675.244047 158.907154 677.145089 158.907154 679.311755 158.907154 L 691.962798 159.990488 C 706.327382 159.990488 712.290924 158.183196 712.290924 141.922778 C 712.290924 126.016528 717.077382 97.464443 693.770089 97.464443 Z M 708.968007 217.006115 C 708.968007 262.542576 724.869049 328.412371 738.603425 339.162372 C 751.884676 349.91758 768.87426 354.344664 798.869053 354.344664 C 856.608639 354.344664 884.348224 312.146745 884.348224 224.776949 C 884.348224 138.938403 849.921139 88.974859 790.738844 88.974859 C 737.790925 88.974859 708.968007 134.51132 708.968007 217.006115 Z M 805.197178 291.818619 C 776.645094 291.818619 776.645094 239.230075 776.645094 220.709241 C 776.645094 202.636323 775.197177 154.480071 804.113845 154.480071 C 817.754471 154.480071 830.311763 186.646739 830.311763 220.709241 C 830.311763 237.787367 833.655513 291.818619 805.197178 291.818619 Z M 1008.389897 207.068615 C 1005.764897 199.297781 975.410729 95.297776 972.066978 93.401943 C 965.46802 89.698817 955.077394 90.058192 947.671144 90.058192 C 922.822184 90.058192 906.556558 88.610276 904.749267 114.907152 C 899.150308 192.969656 894.723224 262.542576 892.191974 326.605079 L 892.191974 330.308204 C 892.191974 349.91758 919.207601 348.016539 933.572185 348.016539 C 941.343018 348.016539 949.113852 348.740497 955.077394 343.23008 C 958.421144 340.245705 966.191978 212.214449 967.275311 194.776948 C 973.238853 215.558199 1010.556564 344.672789 1021.671148 349.552997 C 1025.014898 351.000914 1046.879482 353.261331 1057.540941 353.261331 C 1071.275317 353.261331 1076.426359 344.672789 1076.426359 324.344663 C 1076.426359 279.53216 1077.957609 235.167575 1077.957609 190.349864 C 1077.957609 165.95403 1079.7649 141.922778 1079.7649 117.433194 C 1079.7649 100.808193 1072.718025 93.401943 1056.457608 93.401943 L 1030.97844 93.401943 C 1007.212813 93.401943 1012.452397 111.198818 1011.280522 129.724861 C 1009.832605 155.204029 1009.47323 180.412364 1008.389897 207.068615 Z M 1087.566984 217.006115 C 1087.566984 262.542576 1103.473235 328.412371 1117.207611 339.162372 C 1130.488861 349.91758 1147.473237 354.344664 1177.473239 354.344664 C 1235.207617 354.344664 1262.947201 312.146745 1262.947201 224.776949 C 1262.947201 138.938403 1228.520116 88.974859 1169.337822 88.974859 C 1116.389902 88.974859 1087.566984 134.51132 1087.566984 217.006115 Z M 1183.796156 291.818619 C 1155.244071 291.818619 1155.244071 239.230075 1155.244071 220.709241 C 1155.244071 202.636323 1153.801362 154.480071 1182.712822 154.480071 C 1196.353448 154.480071 1208.915949 186.646739 1208.915949 220.709241 C 1208.915949 237.787367 1212.259699 291.818619 1183.796156 291.818619 Z M 1183.796156 291.818619 " stroke="#e492f7" stroke-width="62.916489" stroke-opacity="1" stroke-miterlimit="4"/><g fill="#ffffff" fill-opacity="1"><g transform="translate(25.559168, 426.354783)"><g><path d="M 41.636719 -193.1875 C 35.804688 -193.1875 24.148438 -193.1875 20.816406 -189.578125 C 18.042969 -186.804688 18.042969 -182.640625 17.765625 -179.03125 C 14.433594 -136.007812 14.15625 -88.820312 14.15625 -22.484375 C 14.15625 -4.441406 21.371094 1.109375 45.519531 1.109375 L 65.785156 1.109375 C 88.542969 1.109375 105.199219 -2.21875 109.085938 -6.9375 C 111.582031 -9.992188 112.414062 -13.324219 112.414062 -19.707031 C 112.414062 -37.75 110.195312 -55.234375 107.417969 -57.179688 C 105.199219 -58.84375 103.253906 -59.398438 100.203125 -59.398438 C 91.320312 -59.398438 82.992188 -55.792969 74.109375 -55.792969 C 71.613281 -55.792969 70.222656 -56.070312 68.558594 -57.457031 C 64.949219 -60.507812 64.949219 -95.484375 64.949219 -100.757812 C 64.949219 -125.738281 66.617188 -150.996094 66.617188 -176.253906 C 66.617188 -189.300781 60.789062 -193.1875 41.636719 -193.1875 Z M 41.636719 -193.1875 "/></g></g></g><g fill="#ffffff" fill-opacity="1"><g transform="translate(122.984811, 426.354783)"><g><path d="M 128.234375 2.21875 C 141.003906 2.21875 146.277344 -0.832031 146.277344 -8.605469 C 146.277344 -41.078125 122.128906 -174.035156 113.800781 -191.523438 C 111.582031 -196.519531 110.195312 -197.351562 104.921875 -197.351562 C 96.871094 -197.351562 68.835938 -196.519531 62.453125 -194.851562 C 53.015625 -192.632812 46.078125 -188.191406 43.855469 -179.863281 C 27.203125 -114.636719 13.878906 -58.011719 6.660156 -6.660156 C 6.660156 -6.382812 6.660156 -6.105469 6.660156 -5.828125 L 6.382812 -4.441406 C 6.382812 -4.164062 6.382812 -3.886719 6.382812 -3.609375 C 6.382812 3.886719 22.761719 3.886719 29.144531 3.886719 C 33.308594 3.886719 37.75 3.609375 41.636719 3.609375 C 50.238281 3.609375 52.738281 2.21875 54.125 -4.71875 C 57.179688 -19.152344 58.011719 -34.972656 59.398438 -49.40625 C 59.398438 -49.683594 59.398438 -49.683594 59.398438 -49.960938 L 59.675781 -51.074219 C 59.675781 -51.351562 59.675781 -51.351562 59.675781 -51.628906 L 91.597656 -51.628906 C 93.816406 -37.472656 96.039062 -23.039062 98.257812 -8.882812 C 99.089844 -5.273438 99.371094 -2.5 103.53125 0.277344 C 105.199219 1.386719 117.410156 2.21875 128.234375 2.21875 Z M 63.007812 -81.605469 C 66.339844 -104.921875 70.222656 -125.183594 74.941406 -144.613281 C 79.660156 -122.960938 83.546875 -101.867188 86.878906 -81.050781 L 79.9375 -81.328125 C 74.109375 -81.605469 68.558594 -81.605469 63.007812 -81.605469 Z M 63.007812 -81.605469 "/></g></g></g><g fill="#ffffff" fill-opacity="1"><g transform="translate(259.824959, 426.354783)"><g><path d="M 87.15625 -190.132812 C 63.839844 -190.132812 18.597656 -184.582031 16.375 -181.527344 C 14.15625 -178.753906 14.15625 -164.042969 14.15625 -159.878906 C 14.15625 -146.832031 14.15625 -133.789062 14.15625 -120.742188 L 14.988281 -42.191406 C 14.988281 -29.144531 14.988281 -16.097656 14.988281 -3.054688 C 14.988281 0 14.988281 1.941406 17.488281 4.164062 C 18.875 5.550781 39.414062 6.9375 57.457031 6.9375 C 66.339844 6.9375 69.667969 3.886719 69.667969 -3.886719 C 69.667969 -24.703125 66.339844 -44.964844 66.339844 -66.894531 C 66.339844 -75.5 81.605469 -72.722656 87.433594 -72.722656 C 89.933594 -72.722656 93.261719 -75.222656 95.484375 -77.164062 C 96.316406 -77.996094 98.257812 -93.816406 98.257812 -100.480469 C 98.257812 -112.691406 77.71875 -110.195312 69.390625 -110.195312 C 63.285156 -110.195312 60.507812 -113.523438 60.507812 -120.742188 C 60.507812 -128.792969 58.289062 -144.058594 71.613281 -144.058594 C 73.277344 -144.058594 74.664062 -144.058594 76.332031 -144.058594 L 85.769531 -143.226562 C 96.59375 -143.226562 101.035156 -144.613281 101.035156 -156.824219 C 101.035156 -168.761719 104.644531 -190.132812 87.15625 -190.132812 Z M 87.15625 -190.132812 "/></g></g></g><g fill="#ffffff" fill-opacity="1"><g transform="translate(347.258251, 426.354783)"><g><path d="M 11.101562 -100.480469 C 11.101562 -66.339844 23.039062 -16.929688 33.308594 -8.882812 C 43.300781 -0.832031 56.070312 2.5 78.550781 2.5 C 121.851562 2.5 142.667969 -29.144531 142.667969 -94.652344 C 142.667969 -159.046875 116.855469 -196.519531 72.445312 -196.519531 C 32.753906 -196.519531 11.101562 -162.378906 11.101562 -100.480469 Z M 83.269531 -44.410156 C 61.898438 -44.410156 61.898438 -83.824219 61.898438 -97.703125 C 61.898438 -111.304688 60.789062 -147.386719 82.4375 -147.386719 C 92.707031 -147.386719 102.144531 -123.238281 102.144531 -97.703125 C 102.144531 -84.9375 104.644531 -44.410156 83.269531 -44.410156 Z M 83.269531 -44.410156 "/></g></g></g><g fill="#ffffff" fill-opacity="1"><g transform="translate(482.710606, 426.354783)"><g><path d="M 100.203125 -107.972656 C 98.257812 -113.800781 75.5 -191.800781 73 -193.1875 C 68.003906 -195.960938 60.230469 -195.683594 54.679688 -195.683594 C 36.082031 -195.683594 23.871094 -196.796875 22.484375 -177.089844 C 18.320312 -118.519531 14.988281 -66.339844 13.046875 -18.320312 L 13.046875 -15.542969 C 13.046875 -0.832031 33.308594 -2.21875 44.132812 -2.21875 C 49.960938 -2.21875 55.792969 -1.664062 60.230469 -5.828125 C 62.730469 -8.050781 68.558594 -104.085938 69.390625 -117.132812 C 73.832031 -101.589844 101.867188 -4.71875 110.195312 -1.109375 C 112.691406 0 129.070312 1.664062 137.117188 1.664062 C 147.386719 1.664062 151.273438 -4.71875 151.273438 -19.984375 C 151.273438 -53.570312 152.382812 -86.878906 152.382812 -120.464844 C 152.382812 -138.785156 153.773438 -156.824219 153.773438 -175.144531 C 153.773438 -187.636719 148.5 -193.1875 136.285156 -193.1875 L 117.132812 -193.1875 C 99.371094 -193.1875 103.253906 -179.863281 102.421875 -165.984375 C 101.3125 -146.832031 101.035156 -127.957031 100.203125 -107.972656 Z M 100.203125 -107.972656 "/></g></g></g><g fill="#ffffff" fill-opacity="1"><g transform="translate(631.208581, 426.354783)"><g><path d="M 11.101562 -100.480469 C 11.101562 -66.339844 23.039062 -16.929688 33.308594 -8.882812 C 43.300781 -0.832031 56.070312 2.5 78.550781 2.5 C 121.851562 2.5 142.667969 -29.144531 142.667969 -94.652344 C 142.667969 -159.046875 116.855469 -196.519531 72.445312 -196.519531 C 32.753906 -196.519531 11.101562 -162.378906 11.101562 -100.480469 Z M 83.269531 -44.410156 C 61.898438 -44.410156 61.898438 -83.824219 61.898438 -97.703125 C 61.898438 -111.304688 60.789062 -147.386719 82.4375 -147.386719 C 92.707031 -147.386719 102.144531 -123.238281 102.144531 -97.703125 C 102.144531 -84.9375 104.644531 -44.410156 83.269531 -44.410156 Z M 83.269531 -44.410156 "/></g></g></g><g fill="#e492f7" fill-opacity="1"><g transform="translate(78.485452, 577.559536)"><g><path d="M 30.894531 1.441406 C 47.863281 1.441406 57.945312 -8.484375 57.945312 -24.8125 C 57.945312 -44.820312 38.097656 -58.90625 38.097656 -62.429688 C 38.097656 -67.871094 51.703125 -65.148438 51.703125 -71.710938 C 51.703125 -78.4375 46.902344 -86.4375 42.738281 -86.4375 C 38.898438 -86.4375 16.96875 -79.074219 13.925781 -76.835938 C 11.046875 -74.59375 10.085938 -72.03125 10.085938 -66.75 C 10.085938 -47.863281 36.335938 -54.90625 36.335938 -25.613281 C 36.335938 -18.25 34.253906 -13.765625 30.734375 -13.765625 C 23.851562 -13.765625 25.773438 -30.414062 25.773438 -34.574219 C 25.773438 -38.257812 22.25 -38.097656 19.527344 -38.097656 C 10.085938 -38.097656 3.839844 -38.097656 3.839844 -26.570312 C 3.839844 -8.644531 13.605469 1.441406 30.894531 1.441406 Z M 30.894531 1.441406 "/></g></g></g><g fill="#e492f7" fill-opacity="1"><g transform="translate(129.703328, 577.559536)"><g><path d="M 5.921875 -44.019531 C 5.921875 -27.371094 11.046875 -7.683594 16.488281 -3.523438 C 21.128906 0 27.210938 1.441406 37.777344 1.441406 C 60.347656 1.441406 67.871094 -9.765625 67.871094 -44.019531 C 67.871094 -72.03125 56.503906 -86.597656 34.734375 -86.597656 C 14.726562 -86.597656 5.921875 -73.632812 5.921875 -44.019531 Z M 37.457031 -62.910156 C 46.261719 -62.910156 46.261719 -45.78125 46.261719 -39.859375 C 46.261719 -34.253906 47.0625 -18.089844 38.898438 -18.089844 C 29.613281 -18.089844 29.613281 -34.253906 29.613281 -40.660156 C 29.613281 -46.582031 28.332031 -62.910156 37.457031 -62.910156 Z M 37.457031 -62.910156 "/></g></g></g><g fill="#e492f7" fill-opacity="1"><g transform="translate(192.92575, 577.559536)"><g><path d="M 60.347656 -23.371094 C 60.347656 -32.65625 56.503906 -40.339844 51.703125 -40.339844 C 44.179688 -40.339844 38.097656 -36.015625 38.097656 -30.574219 C 38.097656 -27.53125 39.699219 -20.648438 34.734375 -20.648438 C 30.734375 -20.648438 26.730469 -34.253906 26.730469 -47.542969 C 26.730469 -56.503906 28.972656 -63.550781 31.695312 -63.550781 C 37.777344 -63.550781 33.296875 -49.460938 40.820312 -49.460938 C 46.742188 -49.460938 54.746094 -54.105469 54.746094 -57.625 C 54.746094 -59.546875 52.824219 -66.429688 50.582031 -72.992188 C 47.222656 -82.4375 43.21875 -86.121094 35.375 -86.121094 C 13.925781 -86.121094 4.640625 -75.234375 4.640625 -50.101562 C 4.640625 -42.578125 5.601562 -34.734375 7.363281 -27.050781 C 11.683594 -8.644531 21.609375 -1.28125 41.777344 -1.28125 C 53.464844 -1.28125 60.347656 -9.445312 60.347656 -23.371094 Z M 60.347656 -23.371094 "/></g></g></g><g fill="#e492f7" fill-opacity="1"><g transform="translate(247.344849, 577.559536)"><g><path d="M 9.125 -102.925781 C 9.125 -95.082031 12.484375 -89.160156 17.128906 -89.160156 C 29.132812 -89.160156 31.855469 -91.5625 31.855469 -102.605469 C 31.855469 -111.570312 29.773438 -114.613281 23.851562 -114.613281 C 13.925781 -114.613281 9.125 -110.769531 9.125 -102.925781 Z M 34.09375 -37.457031 C 34.09375 -53.464844 32.65625 -73.152344 31.214844 -75.394531 C 29.132812 -78.597656 25.933594 -80.035156 20.808594 -80.035156 C 11.683594 -80.035156 9.765625 -77.476562 9.765625 -65.46875 C 9.765625 -47.0625 11.683594 -8.164062 12.804688 -6.082031 C 14.085938 -3.523438 15.6875 -2.5625 19.527344 -2.5625 C 20.167969 -2.5625 20.96875 -2.722656 21.769531 -2.722656 C 30.253906 -3.363281 32.175781 -5.28125 33.136719 -14.40625 C 33.773438 -20.808594 34.09375 -27.851562 34.09375 -37.457031 Z M 34.09375 -37.457031 "/></g></g></g><g fill="#e492f7" fill-opacity="1"><g transform="translate(279.995699, 577.559536)"><g><path d="M 52.664062 -73.3125 C 49.78125 -78.4375 41.617188 -82.277344 33.457031 -82.277344 C 15.207031 -82.277344 4.480469 -64.828125 4.480469 -34.894531 C 4.480469 -16.007812 13.445312 -2.082031 25.933594 -2.082031 C 36.496094 -2.082031 47.222656 -14.886719 49.460938 -30.253906 C 48.980469 -25.292969 48.820312 -19.6875 48.820312 -13.285156 C 48.820312 -2.882812 51.863281 -4.160156 60.667969 -4.160156 C 68.671875 -4.160156 72.191406 -6.882812 72.191406 -12.804688 C 72.191406 -35.375 70.113281 -57.945312 68.671875 -80.355469 C 68.511719 -83.558594 68.351562 -86.757812 64.828125 -88.039062 C 63.710938 -88.519531 62.109375 -88.519531 60.988281 -88.519531 C 54.90625 -88.519531 52.183594 -85.960938 52.183594 -79.714844 C 52.183594 -77.476562 52.503906 -75.394531 52.664062 -73.3125 Z M 34.09375 -30.09375 C 26.570312 -30.09375 26.890625 -40.980469 26.890625 -46.261719 C 26.890625 -56.1875 29.292969 -61.46875 33.773438 -61.46875 C 39.539062 -61.46875 42.738281 -56.34375 42.738281 -47.0625 C 42.738281 -36.976562 39.21875 -30.09375 34.09375 -30.09375 Z M 34.09375 -30.09375 "/></g></g></g><g fill="#e492f7" fill-opacity="1"><g transform="translate(348.500136, 577.559536)"><g><path d="M 31.214844 -35.855469 C 31.214844 -64.1875 29.132812 -112.050781 27.691406 -113.8125 C 26.09375 -115.894531 24.652344 -116.53125 21.609375 -116.53125 C 11.683594 -116.53125 7.84375 -112.210938 7.84375 -101.484375 C 7.84375 -85.320312 7.683594 -68.671875 7.683594 -52.183594 C 7.683594 -43.699219 7.203125 -4.480469 11.207031 0.480469 C 12.644531 2.242188 17.929688 3.363281 24.011719 3.363281 C 25.773438 3.363281 26.730469 2.882812 28.332031 1.441406 C 29.933594 0 31.214844 -18.25 31.214844 -35.855469 Z M 31.214844 -35.855469 "/></g></g></g><g fill="#e492f7" fill-opacity="1"><g transform="translate(376.989404, 577.559536)"><g><path d="M 23.691406 2.402344 C 29.933594 2.402344 34.09375 -0.800781 34.09375 -7.203125 C 34.09375 -18.886719 31.855469 -30.414062 31.855469 -42.097656 C 38.257812 -35.695312 43.699219 -3.839844 54.746094 -3.839844 C 62.109375 -3.839844 67.550781 -9.285156 67.550781 -16.648438 C 67.550781 -28.8125 49.300781 -45.140625 49.300781 -48.183594 C 49.300781 -52.503906 66.269531 -66.589844 66.269531 -77.957031 C 66.269531 -83.558594 57.304688 -86.121094 52.984375 -86.121094 C 39.21875 -86.121094 36.496094 -70.273438 30.734375 -60.027344 C 30.734375 -76.515625 32.496094 -92.84375 32.496094 -109.328125 C 32.496094 -116.371094 27.851562 -117.652344 21.769531 -117.652344 C 17.769531 -117.652344 13.765625 -117.332031 10.726562 -114.453125 C 8.644531 -112.53125 8.324219 -67.070312 8.324219 -62.429688 L 8.324219 -31.695312 C 8.324219 -25.773438 8.324219 -19.847656 8.804688 -13.925781 C 9.765625 -3.363281 12.164062 2.402344 23.691406 2.402344 Z M 23.691406 2.402344 "/></g></g></g><g fill="#e492f7" fill-opacity="1"><g transform="translate(437.170676, 577.559536)"><g><path d="M 9.125 -102.925781 C 9.125 -95.082031 12.484375 -89.160156 17.128906 -89.160156 C 29.132812 -89.160156 31.855469 -91.5625 31.855469 -102.605469 C 31.855469 -111.570312 29.773438 -114.613281 23.851562 -114.613281 C 13.925781 -114.613281 9.125 -110.769531 9.125 -102.925781 Z M 34.09375 -37.457031 C 34.09375 -53.464844 32.65625 -73.152344 31.214844 -75.394531 C 29.132812 -78.597656 25.933594 -80.035156 20.808594 -80.035156 C 11.683594 -80.035156 9.765625 -77.476562 9.765625 -65.46875 C 9.765625 -47.0625 11.683594 -8.164062 12.804688 -6.082031 C 14.085938 -3.523438 15.6875 -2.5625 19.527344 -2.5625 C 20.167969 -2.5625 20.96875 -2.722656 21.769531 -2.722656 C 30.253906 -3.363281 32.175781 -5.28125 33.136719 -14.40625 C 33.773438 -20.808594 34.09375 -27.851562 34.09375 -37.457031 Z M 34.09375 -37.457031 "/></g></g></g><g fill="#e492f7" fill-opacity="1"><g transform="translate(469.821526, 577.559536)"><g><path d="M 40.980469 -70.433594 C 38.417969 -77.796875 31.695312 -82.917969 23.851562 -82.917969 C 6.242188 -82.917969 2.5625 -51.703125 2.5625 -38.738281 C 2.5625 -24.332031 8.003906 -1.121094 26.09375 -1.121094 C 34.894531 -1.121094 43.21875 -7.363281 45.300781 -16.007812 C 45.941406 -3.683594 42.738281 9.925781 60.027344 9.925781 C 65.628906 9.925781 67.871094 6.5625 67.871094 1.28125 C 67.871094 -0.640625 67.550781 -2.402344 67.390625 -4.320312 C 64.027344 -37.9375 66.429688 -71.871094 62.910156 -105.488281 C 61.949219 -113.492188 61.148438 -116.054688 52.824219 -116.054688 C 44.179688 -116.054688 40.179688 -114.613281 40.179688 -105.167969 C 40.179688 -93.644531 40.980469 -81.957031 40.980469 -70.433594 Z M 30.253906 -25.933594 C 25.292969 -25.933594 24.8125 -36.976562 24.8125 -40.5 C 24.8125 -44.980469 25.292969 -57.144531 31.695312 -57.144531 C 39.21875 -57.144531 39.859375 -48.023438 39.859375 -42.417969 C 39.859375 -37.296875 36.65625 -25.933594 30.253906 -25.933594 Z M 30.253906 -25.933594 "/></g></g></g><g fill="#e492f7" fill-opacity="1"><g transform="translate(533.204021, 577.559536)"><g><path d="M 30.894531 1.441406 C 47.863281 1.441406 57.945312 -8.484375 57.945312 -24.8125 C 57.945312 -44.820312 38.097656 -58.90625 38.097656 -62.429688 C 38.097656 -67.871094 51.703125 -65.148438 51.703125 -71.710938 C 51.703125 -78.4375 46.902344 -86.4375 42.738281 -86.4375 C 38.898438 -86.4375 16.96875 -79.074219 13.925781 -76.835938 C 11.046875 -74.59375 10.085938 -72.03125 10.085938 -66.75 C 10.085938 -47.863281 36.335938 -54.90625 36.335938 -25.613281 C 36.335938 -18.25 34.253906 -13.765625 30.734375 -13.765625 C 23.851562 -13.765625 25.773438 -30.414062 25.773438 -34.574219 C 25.773438 -38.257812 22.25 -38.097656 19.527344 -38.097656 C 10.085938 -38.097656 3.839844 -38.097656 3.839844 -26.570312 C 3.839844 -8.644531 13.605469 1.441406 30.894531 1.441406 Z M 30.894531 1.441406 "/></g></g></g><g fill="#e492f7" fill-opacity="1"><g transform="translate(584.421917, 577.559536)"><g><path d="M 18.570312 1.28125 C 30.734375 1.28125 34.574219 -1.921875 34.574219 -12.164062 C 34.574219 -23.53125 31.695312 -26.253906 20.328125 -26.253906 C 7.84375 -26.253906 7.84375 -18.886719 7.84375 -8.804688 C 7.84375 -1.28125 10.566406 1.28125 18.570312 1.28125 Z M 18.570312 1.28125 "/></g></g></g><g fill="#e492f7" fill-opacity="1"><g transform="translate(616.592548, 577.559536)"><g><path d="M 52.183594 -66.269531 C 58.90625 -66.269531 57.304688 -80.355469 57.304688 -85.160156 C 57.304688 -104.527344 50.902344 -113.332031 36.976562 -113.332031 C 16.488281 -113.332031 6.5625 -93.800781 6.5625 -53.304688 C 6.5625 -25.933594 11.363281 -8.324219 20.648438 -1.761719 C 24.492188 0.960938 29.453125 1.921875 38.578125 1.921875 C 53.304688 1.921875 59.867188 -7.523438 59.867188 -29.132812 C 59.867188 -38.898438 58.90625 -46.261719 57.625 -47.222656 C 56.984375 -47.703125 56.027344 -47.863281 54.90625 -47.863281 C 52.023438 -47.863281 42.578125 -46.902344 42.097656 -46.582031 C 41.296875 -45.941406 40.980469 -45.140625 40.980469 -44.019531 C 40.980469 -40.5 41.617188 -33.617188 36.496094 -33.617188 C 31.535156 -33.617188 27.691406 -47.222656 27.691406 -64.507812 C 27.691406 -78.4375 30.414062 -92.042969 33.296875 -92.042969 C 36.015625 -92.042969 37.617188 -87.71875 37.617188 -80.996094 C 37.617188 -65.308594 35.695312 -66.269531 52.183594 -66.269531 Z M 52.183594 -66.269531 "/></g></g></g><g fill="#e492f7" fill-opacity="1"><g transform="translate(672.452166, 577.559536)"><g><path d="M 22.089844 -111.410156 C 19.367188 -111.410156 13.925781 -111.410156 12.003906 -109.328125 C 10.40625 -107.730469 10.40625 -105.328125 10.246094 -103.246094 C 8.324219 -78.4375 8.164062 -51.222656 8.164062 -12.964844 C 8.164062 -2.5625 12.003906 0.640625 24.652344 0.640625 L 35.375 0.640625 C 47.382812 0.640625 56.1875 -1.121094 58.265625 -3.839844 C 59.546875 -5.441406 60.027344 -7.363281 60.027344 -10.886719 C 60.027344 -20.808594 58.746094 -30.253906 57.144531 -31.375 C 55.867188 -32.175781 54.746094 -32.65625 52.984375 -32.65625 C 47.863281 -32.65625 43.058594 -30.574219 37.9375 -30.574219 C 36.496094 -30.574219 35.695312 -30.734375 34.734375 -31.535156 C 32.65625 -33.296875 32.65625 -53.945312 32.65625 -56.984375 C 32.65625 -71.710938 33.617188 -86.597656 33.617188 -101.484375 C 33.617188 -109.167969 30.894531 -111.410156 22.089844 -111.410156 Z M 22.089844 -111.410156 "/></g></g></g></svg>